<?xml version="1.0" encoding="UTF-8"?><svg id="Layer_2" xmlns="http://www.w3.org/2000/svg" viewBox="0 0 312.6739 135.8064"><g id="Components"><g id="b4607157-54f5-47f6-a80c-cc837a3f05eb_5"><g><g><path d="M284.8657,47.8425c1.7246,0,3.3514,.3182,4.8784,.9545,1.5274,.6363,2.8563,1.5058,3.9877,2.6086,1.1305,1.1032,2.0216,2.3903,2.6724,3.8605,.6504,1.4706,.9756,3.0403,.9756,4.7085s-.3252,3.2387-.9756,4.7085c-.6508,1.4711-1.5419,2.7573-2.6724,3.8605-1.1314,1.1028-2.4603,1.9723-3.9877,2.6086-1.527,.6363-3.1538,.9545-4.8784,.9545s-3.351-.3182-4.8784-.9545c-1.527-.6363-2.8568-1.5058-3.9873-2.6086-1.1318-1.1032-2.0224-2.3895-2.6728-3.8605-.6508-1.4698-.9756-3.0395-.9756-4.7085s.3248-3.2379,.9756-4.7085c.6504-1.4702,1.5411-2.7573,2.6728-3.8605,1.1305-1.1028,2.4603-1.9723,3.9873-2.6086,1.5274-.6363,3.153-.9545,4.8784-.9545Zm0,19.6829c1.0183,0,1.9794-.1976,2.8845-.5936,.9048-.396,1.6968-.9333,2.3758-1.6123,.6786-.6786,1.2088-1.4773,1.5908-2.3965,.3815-.9188,.5725-1.9019,.5725-2.9483s-.191-2.0291-.5725-2.9483c-.382-.9184-.9122-1.718-1.5908-2.3965-.679-.679-1.4711-1.2159-2.3758-1.6123-.9052-.3956-1.8663-.5936-2.8845-.5936s-1.9798,.198-2.8845,.5936c-.9056,.3965-1.6968,.9333-2.3754,1.6123-.679,.6786-1.2092,1.4781-1.5908,2.3965-.382,.9193-.5729,1.9023-.5729,2.9483s.191,2.0295,.5729,2.9483c.3815,.9193,.9118,1.718,1.5908,2.3965,.6786,.679,1.4698,1.2163,2.3754,1.6123,.9048,.396,1.8667,.5936,2.8845,.5936Z" style="fill:#fff;"/><path d="M312.227,44.279h-.0849c-.6508,0-1.2585,.1135-1.824,.3393-.5663,.2266-1.0605,.5303-1.4847,.9122-.4242,.3815-.7569,.8273-.9971,1.336-.2403,.5091-.3604,1.0605-.3604,1.6546h4.7512v4.4119h-4.7512v18.4952h-5.0905v-18.4952h-2.9694v-4.4119h2.9694c0-1.1591,.2187-2.2412,.6574-3.2453,.4383-1.0033,1.0319-1.8803,1.7817-2.6297,.749-.749,1.633-1.343,2.6513-1.7817,1.0183-.4383,2.0924-.6574,3.2238-.6574h1.5274v4.0722Z" style="fill:#fff;"/></g><path d="M215.1384,25.2156h-10.109v6.762h.0591v24.4914c0,.005,.0008,.0098,.0008,.0147s-.0008,.0099-.0008,.0148v.0574h-.0028c-.0386,2.9409-2.4064,5.3137-5.3254,5.3137s-5.2866-2.3728-5.3254-5.3137h-.0211V31.9776h.0149v-6.762h-9.8069l-.0024,25.3066c0,.2408-.0137,.4754-.0223,.7124v5.2344c0,.005,.0008,.0098,.0008,.0147s-.0008,.0099-.0008,.0148v.0574h-.003c-.039,2.9409-2.432,5.3137-5.3823,5.3137s-5.3431-2.3728-5.3823-5.3137h-.0213V31.9776h.0356v-6.7598h-9.9337v24.7335c0,.3933,.0243,.7753,.0376,1.1626v5.5839c0,2.0828,.3976,4.0425,1.1932,5.8801,.7952,1.8371,1.875,3.4377,3.2382,4.801,1.3638,1.3638,2.9644,2.4429,4.8008,3.2385,1.8376,.7956,3.798,1.1929,5.8808,1.1929s4.0436-.3973,5.8802-1.1929c1.7303-.7492,3.2418-1.7594,4.5518-3.0123,1.3104,1.2529,2.8227,2.2632,4.552,3.0123,1.8376,.7956,3.7978,1.1929,5.8806,1.1929s4.0438-.3973,5.8802-1.1929c1.8376-.7956,3.4372-1.8747,4.801-3.2385,1.3634-1.3633,2.443-2.9639,3.2386-4.801,.795-1.8376,1.1928-3.7973,1.1928-5.8801v-4.2499c.0613-.8201,.1003-1.6503,.1003-2.4988V25.2156Z" style="fill:#fff;"/><g><path d="M252.174,60.4554c.031,.0211,.0625,.041,.0935,.0621-.5307-.5487-.3668-.2475-.0935-.0621Z" style="fill:#fff;"/><path d="M238.598,33.3298c.007,.0458,.0145,.0915,.0215,.1374-.0249-.2177-.0434-.3715-.0565-.4737,.0127,.1119,.0217,.2244,.035,.3363Z" style="fill:#fff;"/><path d="M232.478,60.4459c-.0113,.0086-.0219,.0165-.0332,.0254,.0058-.0039,.0115-.0077,.0173-.0114,.0058-.0046,.0101-.0094,.0159-.0139Z" style="fill:#fff;"/><path d="M261.8264,61.751c-.6217,.053-1.2438,.0789-1.8679,.0627-.2734-.0071-.5469-.0209-.8197-.0414-.0641-.0048-.1278-.0117-.1916-.0177-.566-.2021-1.277-.2345-1.8559-.3955-.6245-.1739-1.2362-.4782-1.8599-.6396-.0653-.031-.1305-.0617-.1954-.0936-.327-.161-.6496-.3308-.9672-.5102-.6227-.3517-1.2123-.7494-1.8012-1.1546,.035,.0368,.0639,.0659,.1053,.1108-.1097-.1186-.2659-.217-.3897-.3211-.3049-.2568-.603-.522-.8935-.7958-.475-.4482-.9238-.9222-1.3672-1.4023-.4663-.5047-.9212-1.0199-1.3731-1.5378,.355-.6048,.6997-1.2163,1.0195-1.8429,2.8675-5.616,4.7803-11.8928,5.9269-18.0995,1.049-5.6766,1.366-11.7912,.7526-17.5372-.7427-6.9556-3.916-15.048-11.1972-17.162-7.6891-2.2322-13.6871,6-15.5086,12.5763-.7906,2.8547-.9518,5.9574-.9966,8.9115-.0444,2.9175,.0848,5.8453,.3902,8.7466,.6559,6.2328,2.24,12.4584,4.6066,18.2477,.8748,2.1399,1.8714,4.1651,2.999,6.1053-.4673,.5368-.9389,1.0695-1.4215,1.592-.4436,.48-.8921,.9541-1.3674,1.4023-.2492,.2351-.5043,.4642-.7642,.687-.0939,.0805-.2044,.1624-.3108,.2464,.1942-.1493,.3654-.244-.0094,.0097-.0022,.0014-.0044,.0029-.0066,.0045-.0691,.0552-.1397,.1105-.1922,.1694,.0444-.0497,.1095-.1059,.1749-.1578-.6161,.417-1.2227,.8356-1.8708,1.2016-.2724,.1538-.5489,.3011-.8283,.4417-.0947,.0477-.1906,.0926-.2862,.1382-.2468,.0033-.6969,.2812-.9232,.3583-.3256,.1109-.6537,.213-.9849,.3053-.5875,.1635-1.1996,.2413-1.7881,.3901-.0406,.0039-.081,.0082-.1216,.0115-.3188,.0267-.638,.0446-.9576,.0529-.6239,.0162-1.2462-.0097-1.8679-.0627-.0012-.0001-.0026,0-.0038,0v9.9425c.0014,.0001,.0026,.0005,.0038,.0006,7.1027,.6065,14.0913-2.8045,18.8951-7.975,.2076-.2234,.4107-.4517,.6157-.678,3.8985,4.177,8.6601,7.5223,14.4051,8.3763,1.7047,.2534,3.3737,.4235,5.0941,.2766,.0832-.0071,.1662-.0209,.2492-.0317v-9.9165c-.0832,.0018-.1648-.0022-.2492,.0051Zm-15.4644-33.3478c-.0316,.284-.0754,.5679-.1108,.8523-.0587,.6898-.1266,1.3787-.2074,2.0658-.0253,.1723-.0498,.3446-.0778,.5165-.083,.51-.1829,1.0157-.2909,1.5207-.3608,1.6868-.7588,3.3656-1.2056,5.031-.3871,1.4431-.8121,2.8759-1.2866,4.2917-.2137,.637-.4374,1.2706-.673,1.8997-.0613,.1641-.125,.3274-.1881,.491-.0631-.1637-.1274-.3267-.1889-.491-.2354-.6291-.4591-1.2627-.6728-1.8997-.6046-1.8013-1.1226-3.6315-1.59-5.4752-.1534-.5132-.3019-1.0331-.4354-1.575-.3059-1.2443-.559-2.533-.7791-3.8385,.0018,.0158,.003,.0262,.0048,.0426-.002-.0179-.0046-.0357-.0066-.0535-.3158-1.8766-.5506-3.7943-.6726-5.7194-.0965-1.5214-.1371-3.0567-.1232-4.5867,.0141-1.549,.0651-3.1761,.3144-4.673,.5186-3.111,2.1114-6.9146,4.1992-6.7727,.0131-.0034,.0259-.0065,.0392-.0103,.0135,.0038,.0225,.0065,.035,.01,.0046,.0029,.008,.0054,.0119,.0078,.1992,.0239,.401,.0704,.6086,.1705,2.2975,1.1084,3.2989,5.352,3.5333,8.9994,.1934,3.0131,.0933,6.2197-.2376,9.1962Z" style="fill:#fff;"/><path d="M229.4593,62.2239c-.0901,.0423-.1797,.0853-.2697,.1281-.5889,.2796,.039-.0822,.2697-.1281Z" style="fill:#fff;"/><path d="M258.8029,63.2526c-.0718-.007-.1439-.0131-.2157-.0196-.5049-.0459-.0947-.0198,.2157,.0196Z" style="fill:#fff;"/></g><path d="M105.203,118.7187c-.8693,2.1739-2.0513,4.1711-3.5455,5.9916-1.4949,1.8213-3.2199,3.3966-5.1757,4.7275-1.9566,1.3317-4.117,2.3634-6.4804,3.0973-2.3642,.7339-4.8231,1.1001-7.3767,1.1001-3.3154,0-6.4398-.6113-9.3739-1.834-2.9349-1.2227-5.4893-2.8935-7.6625-5.0125-2.1739-2.1198-3.8997-4.5914-5.1757-7.4181-1.2776-2.8243-1.916-5.8404-1.916-9.0475s.6384-6.2217,1.916-9.0475c1.276-2.8251,3.0018-5.2983,5.1757-7.4181,2.1731-2.119,4.7275-3.7898,7.6625-5.0125,2.9341-1.2227,6.0585-1.834,9.3739-1.834,3.3687,0,6.5066,.6113,9.4145,1.834,2.9063,1.2227,5.4615,2.8935,7.6617,5.0125,2.201,2.1198,3.926,4.593,5.1765,7.4181,1.249,2.8259,1.8746,5.842,1.8746,9.0475,0,1.0874-.0812,2.1739-.2444,3.2605h-37.822c.3797,1.6302,1.0054,3.1252,1.8746,4.4832,.8693,1.3588,1.916,2.5409,3.1387,3.5455,1.2227,1.0062,2.5942,1.7934,4.1162,2.3642,1.5204,.5707,3.1244,.8557,4.8095,.8557,2.4454,0,4.6997-.5564,6.7654-1.6708,2.0641-1.1128,3.7214-2.5942,4.9719-4.4426h10.841Zm-22.5782-22.9046c-1.6302,0-3.1793,.2587-4.6464,.7745-1.4671,.5166-2.7996,1.2362-3.9944,2.1596-1.1956,.925-2.2416,2.0251-3.1379,3.3011-.8971,1.2776-1.5626,2.6778-1.9972,4.1982h27.551c-.4354-1.5204-1.0874-2.9206-1.9558-4.1982-.87-1.276-1.916-2.3761-3.1387-3.3011-1.2227-.9234-2.5672-1.643-4.035-2.1596-1.4671-.5158-3.0153-.7745-4.6456-.7745Z" style="fill:#fff;"/><path d="M209.8633,89.6187l-20.2157,44.0166h-6.3578l-20.2149-44.0166h10.5154l12.8788,29.6708,12.8788-29.6708h10.5154Z" style="fill:#fff;"/><path d="M259.2594,118.7187c-.8693,2.1739-2.0513,4.1711-3.5455,5.9916-1.4949,1.8213-3.2199,3.3966-5.1757,4.7275-1.9566,1.3317-4.117,2.3634-6.4804,3.0973-2.3642,.7339-4.8231,1.1001-7.3767,1.1001-3.3154,0-6.4398-.6113-9.3739-1.834-2.9349-1.2227-5.4893-2.8935-7.6625-5.0125-2.1739-2.1198-3.8997-4.5914-5.1757-7.4181-1.2776-2.8243-1.916-5.8404-1.916-9.0475s.6384-6.2217,1.916-9.0475c1.276-2.8251,3.0018-5.2983,5.1757-7.4181,2.1731-2.119,4.7275-3.7898,7.6625-5.0125,2.9341-1.2227,6.0585-1.834,9.3739-1.834,3.3687,0,6.5066,.6113,9.4145,1.834,2.9063,1.2227,5.4615,2.8935,7.6617,5.0125,2.201,2.1198,3.926,4.593,5.1765,7.4181,1.249,2.8259,1.8746,5.842,1.8746,9.0475,0,1.0874-.0812,2.1739-.2444,3.2605h-37.822c.3797,1.6302,1.0054,3.1252,1.8746,4.4832,.8693,1.3588,1.916,2.5409,3.1387,3.5455,1.2227,1.0062,2.5942,1.7934,4.1162,2.3642,1.5204,.5707,3.1244,.8557,4.8095,.8557,2.4454,0,4.6997-.5564,6.7654-1.6708,2.0641-1.1128,3.7214-2.5942,4.9719-4.4426h10.841Zm-22.5782-22.9046c-1.6302,0-3.1793,.2587-4.6464,.7745-1.4671,.5166-2.7996,1.2362-3.9944,2.1596-1.1956,.925-2.2416,2.0251-3.1379,3.3011-.8971,1.2776-1.5626,2.6778-1.9972,4.1982h27.551c-.4354-1.5204-1.0874-2.9206-1.9558-4.1982-.87-1.276-1.916-2.3761-3.1387-3.3011-1.2227-.9234-2.5672-1.643-4.035-2.1596-1.4671-.5158-3.0153-.7745-4.6456-.7745Z" style="fill:#fff;"/><path d="M51.2418,101.5605c-1.1407-2.6356-2.6897-4.9321-4.6456-6.8879s-4.2531-3.5049-6.8879-4.6464c-2.6364-1.1415-5.4487-1.7114-8.437-1.7114-2.2822,0-4.4418,.4076-6.4796,1.2227-2.0378,.8151-3.8456,1.9295-5.4209,3.3417v-4.4596c2.389-1.2687,4.6575-2.7957,6.7542-4.622,7.5745-6.5975,12.1011-16.4997,12.6973-26.4523,.1337-2.2342,.0513-4.4781-.198-6.7016-.3238-2.8876-.8147-5.4896-2.2032-8.0796-2.2107-4.1236-6.6404-7.7951-11.5399-7.5976-6.2332,.2513-10.8577,5.1662-12.598,10.8541-.6695,2.1886-1.0115,4.4995-1.3397,6.7597-.395,2.7207-.7168,5.45-.9365,8.1905-.5668,7.0709-.5522,14.152-.4899,21.2352-1.2265,.363-2.4698,.6691-3.7268,.9065-.5166,.0975-1.0358,.1767-1.5546,.2599-.2714,.0299-.5427,.0623-.8143,.0892-1.1377,.1123-2.2788,.1764-3.4215,.2079v9.7812c3.2493-.0898,6.4674-.487,9.5894-1.2115v41.5962h9.7815v-24.2093c0-1.6836,.312-3.2732,.9377-4.7681,.6241-1.4941,1.4671-2.798,2.5266-3.9124,1.0595-1.1136,2.3228-1.9972,3.7906-2.6491,1.4671-.6527,3.0153-.9783,4.6456-.9783s3.1793,.3256,4.6464,.9783c1.4671,.6519,2.7311,1.5355,3.7906,2.6491,1.0595,1.1144,1.9017,2.4183,2.5266,3.9124,.6241,1.4949,.9377,3.0846,.9377,4.7681v24.2093h9.7815v-23.6385c0-2.9882-.5707-5.7998-1.7122-8.4362Zm-31.8711-32.6214c-.0159-3.5939-.0068-7.1867,.167-10.7747,.073-1.508,.1799-3.0097,.3112-4.5068,.1089-1.2438,.2227-2.5153,.4452-3.7196,.5783-3.1297,2.1152-5.8341,4.1867-5.9724,1.6283-.1087,3.1005,1.9115,3.835,4.1806,.4615,1.4251,.6247,2.8569,.7321,4.4458,.0828,1.2235,.1102,2.4581,.0659,3.6876-.033,.9124-.1154,1.8206-.2195,2.7233,.0024,.0481-.0004,.1123-.0167,.2055-.0119,.0681-.0233,.1361-.0346,.2042-.0036,.0275-.007,.0551-.0103,.0826,.0004,.0241-.0014,.0507,.0028,.0712-.0032-.0159-.0046-.0293-.0064-.0432-.5656,4.3225-1.918,8.403-3.9349,11.3117-.561,.8093-2.2667,2.6809-2.8929,3.2883-.0068-.0045-.0117-.0108-.0185-.0153-.3278,.3722-.6581,.7425-1.0038,1.0979-.5479,.5629-1.1252,1.0957-1.716,1.613-.0034-2.6255,.0336-5.2508,.1091-7.8762-.0004-.0012-.0008-.0024-.0012-.0035Z" style="fill:#fff;"/><path d="M310.9616,101.5632c-1.1406-2.6356-2.6897-4.9323-4.6456-6.888-1.9565-1.9567-4.2531-3.505-6.8878-4.6465-2.6363-1.1412-5.4487-1.7112-8.4371-1.7112s-5.8014,.57-8.436,1.7112c-2.6084,1.1294-4.88,2.6601-6.823,4.5874-2.8909-3.8247-7.4105-6.2986-12.6338-6.2986v10.1249c3.4131,0,6.1896,2.8189,6.1896,6.2321h.0208v5.7263h.0008v23.2372h9.7814v-24.2093c0-1.6836,.312-3.2732,.9377-4.7681,.624-1.494,1.467-2.7981,2.5266-3.9124,1.0593-1.1136,2.3228-1.9973,3.7904-2.6492,1.4672-.6528,3.0153-.9783,4.6456-.9783s3.1795,.3255,4.6465,.9783c1.467,.6519,2.7311,1.5356,3.7906,2.6492,1.0595,1.1142,1.9016,2.4184,2.5265,3.9124,.6241,1.4949,.9377,3.0845,.9377,4.7681l-.0213,24.1485,9.7783,.0118v-11.4247c0-.088,.0138-.1666,.0245-.2473v-11.9177c0-2.988-.5708-5.7995-1.7123-8.436Z" style="fill:#fff;"/><path d="M100.7159,39.5661c-1.2506-2.825-2.9627-5.2983-5.1351-7.4181-2.174-2.1189-4.7148-3.7898-7.6218-5.0125-2.9071-1.2227-6.0189-1.8339-9.3327-1.8339-2.7716,0-5.3802,.5436-7.8255,1.6302-2.4454,1.0872-4.5644,2.5543-6.3579,4.4011v-14.7715h.0127c0-.0886-.0115-.1741-.0127-.2623v-.1269h-.0062c-.199-8.8384-7.0833-15.9677-15.9713-15.9677V10.3294c3.4131,0,6.1896,2.8188,6.1896,6.2319h.0065v10.05h-.0268v22.0083c0,.3668,.0105,.7303,.0268,1.092v.2125c.005,.0096,.0084,.0213,.0132,.031,.1506,2.7106,.7602,5.2823,1.8346,7.712,1.2506,2.825,2.962,5.2983,5.1352,7.4181,2.1739,2.1189,4.7148,3.7898,7.6209,5.0125,2.908,1.2227,6.0195,1.8339,9.3334,1.8339,2.0733,0,4.0667-.2389,5.9801-.7171,1.1557-.2875,2.2826-.6612,3.3802-1.1229,2.9071-1.2225,5.4478-2.8934,7.6218-5.0125,2.1723-2.1197,3.8844-4.5914,5.1351-7.4181,1.2497-2.8242,1.8746-5.8403,1.8746-9.0476,0-3.2055-.6249-6.2215-1.8746-9.0474Zm-9.0752,14.7188c-.7602,1.7647-1.7934,3.3011-3.0974,4.6049-1.3038,1.3047-2.825,2.3363-4.5643,3.0982-.8641,.3778-1.7559,.6611-2.674,.8513-.9206,.1887-1.8674,.2834-2.8417,.2834-1.9567,0-3.8042-.3798-5.5428-1.1408-1.7401-.761-3.2605-1.7934-4.5651-3.098-1.304-1.304-2.3372-2.8388-3.0974-4.6051-.7617-1.7655-1.1414-3.6545-1.1414-5.6653s.3796-3.8987,1.1414-5.6652c.7602-1.7647,1.7934-3.3011,3.0974-4.6049,1.3046-1.3047,2.825-2.3364,4.5651-3.0982,.8645-.3779,1.7562-.6612,2.6743-.8514,.9201-.1885,1.8668-.2833,2.8407-.2833,1.9567,0,3.805,.3798,5.5435,1.1408,1.7393,.761,3.2605,1.7934,4.5643,3.098,1.304,1.304,2.3372,2.8386,3.0974,4.6049,.7617,1.7657,1.1414,3.6545,1.1414,5.6653s-.3796,3.8989-1.1414,5.6653Z" style="fill:#fff;"/><path d="M159.4077,119.6045v-9.2815c0-3.2055-.6248-6.2218-1.8746-9.0474-1.2505-2.8252-2.9618-5.2983-5.135-7.4182-2.174-2.1188-4.7147-3.7896-7.6213-5.0125-2.9077-1.2226-6.0192-1.8341-9.3333-1.8341s-6.4269,.6114-9.3333,1.8341c-2.908,1.2229-5.4487,2.8937-7.621,5.0125-2.1746,2.1199-3.8862,4.593-5.1357,7.4182-1.2507,2.8256-1.8748,5.8419-1.8748,9.0474,0,3.2071,.6241,6.2232,1.8748,9.0474,1.2496,2.8268,2.9611,5.2985,5.1357,7.4182,2.1723,2.119,4.7131,3.7898,7.621,5.0125,2.9064,1.2229,6.0178,1.8341,9.3333,1.8341,2.9875,0,5.7465-.6393,8.2732-1.915,2.5272-1.2762,4.659-3.0289,6.3991-5.2578l.6296-.9256c2.3174,6.0088,7.9715,10.2696,14.8364,10.2696v-10.1252c-3.3605,0-6.09-2.7355-6.1742-6.0767Zm-13.6938,.9888c-1.3038,1.3047-2.8259,2.3372-4.5643,3.0979-1.7403,.7611-3.5868,1.141-5.5427,1.141s-3.8048-.3799-5.5434-1.141c-1.7393-.7607-3.2605-1.7932-4.5643-3.0979-1.3038-1.3038-2.3372-2.8385-3.0974-4.605-.7616-1.7656-1.1415-3.6544-1.1415-5.6653s.3799-3.8988,1.1415-5.6653c.7602-1.7646,1.7936-3.3009,3.0974-4.605,1.3038-1.3045,2.8249-2.3363,4.5643-3.0979,1.7387-.7602,3.587-1.1408,5.5434-1.1408s3.8025,.3806,5.5427,1.1408c1.7384,.7616,3.2605,1.7934,4.5643,3.0979,1.3047,1.3041,2.3363,2.8404,3.0972,4.605,.7611,1.7665,1.1415,3.6553,1.1415,5.6653s-.3803,3.8997-1.1415,5.6653c-.7609,1.7665-1.7925,3.3012-3.0972,4.605Z" style="fill:#fff;"/></g><g><path d="M141.7641,70.2888c3.0093-1.2537,5.6275-2.9668,7.8564-5.1394,2.2273-2.1737,3.9828-4.7076,5.2649-7.6057,1.2814-2.8956,1.922-5.9881,1.922-9.2764s-.6406-6.3788-1.922-9.2767c-.6644-1.501-2.6225-5.528-3.5456-6.8317,.1779,1.6456-.7295,3.4901-2.2263,6.0202-1.1721,1.9809-4.4731,6.6124-13.8279,12.4592-7.2304,4.519-14.7706,6.4536-17.5403,6.963-4.6243,.8505-8.1828,.0088-9.5674-.8984,.444,.705,2.616,3.6464,3.7163,5.1405,.0025-.0011,.0043-.0034,.0069-.0047,.8246,1.1827,1.7429,2.2941,2.7855,3.3106,2.2276,2.1726,4.8475,3.8857,7.8556,5.1394,3.0091,1.2535,6.2117,1.8804,9.6111,1.8804s6.6028-.6269,9.6109-1.8804Z" style="fill:#fff;"/><g><path d="M149.5141,29.1743c-2.5873-4.4815-14.1424-2.6538-25.8087,4.0818-11.6666,6.7356-19.0268,15.8287-16.4394,20.3102,2.5872,4.4812,14.142,2.6538,25.8086-4.082,11.6667-6.7358,19.0268-15.8289,16.4395-20.3101Zm-13.5039,1.4776c2.0854-1.7379,4.3902-1.755,4.9219-1.3728,.5216,.3749,1.0307,1.6459-1.5134,3.7694-5.0338,4.2015-8.9581,5.5021-8.9581,5.5021,0,0,1.8951-4.8532,5.5497-7.8987Zm-23.332,15.7464c-.7626-1.3273,.9881-3.9786,4.6128-4.922,3.6591-.9524,8.8775-.0331,8.8775-.0331,0,0-1.4202,1.1356-4.7122,2.642-3.2919,1.5063-8.0154,3.6404-8.7781,2.3131Zm11.4527,1.8314c-1.9923,2.9264-4.2084,5.6103-6.5281,4.8413-1.3898-.4607-1.6525-3.1537,.7804-5.1895,1.5884-1.329,8.689-5.6632,8.689-5.6632,0,0-.949,3.085-2.9414,6.0114Zm-.6987-9.5419c-1.366-1.4847-.3785-3.1949,1.3264-4.1993,1.4631-.862,3.9163-1.2991,4.756,.2678,.8828,1.6474-1.4223,4.7049-1.4223,4.7049,0,0-3.875,.08-4.6602-.7734Zm10.1134,7.7348c-.9615,.9075-4.2591,2.4404-5.2386,.1674-.9795-2.273,.972-5.1447,.972-5.1447,0,0,3.8591-1.2037,5.2214,.014,1.9213,1.7173-.0008,4.0629-.9549,4.9633Zm11.5469-10.3843c-.1449,1.0189-1.1036,3.1842-6.3515,3.5016-4.0697,.2461-7.3005,.1805-7.3005,.1805,0,0,6.4486-4.3871,9.8825-5.2451,3.4338-.8579,3.8937,.6902,3.7695,1.5631Z" style="fill:#fff;"/><path d="M132.7175,36.4178s1.4798-3.0281,3.5557-4.7616c1.1846-.9892,2.9702-1.7622,3.4165-1.316,.475,.475-.5288,1.6763-1.974,2.885-2.8594,2.3916-4.9982,3.1925-4.9982,3.1925Z" style="fill:#fff;"/><path d="M127.4458,38.4203s1.412-1.976,.8694-3.0422c-.5161-1.014-2.0205-.7329-2.9174-.1763-1.0451,.6485-1.6497,1.754-.8109,2.7152,.4822,.5525,2.859,.5033,2.859,.5033Z" style="fill:#fff;"/><path d="M123.3215,42.1335s-3.3135-.5534-5.6332-.002c-2.2978,.5462-3.7755,2.4194-3.2884,3.202,.4871,.7827,3.8525-.7791,5.9378-1.6573,2.0853-.8781,2.9837-1.5427,2.9837-1.5427Z" style="fill:#fff;"/><path d="M124.7728,44.7545s-4.1146,2.5493-5.0804,3.2691c-1.9442,1.4489-1.6927,3.2602-.8813,3.5241,1.3542,.4406,3.0717-1.6421,4.2381-3.329s1.7236-3.4642,1.7236-3.4642Z" style="fill:#fff;"/><path d="M130.1528,42.2964s-1.4214,1.8302-.8459,3.3614c.5755,1.5312,2.854,.6281,3.5355,.0611,.6761-.5627,2.0582-2.0468,.8276-3.2424-.8725-.8477-3.5171-.1801-3.5171-.1801Z" style="fill:#fff;"/><path d="M134.8294,38.7462s4.0409-2.6009,6.1991-3.124c2.1583-.5231,2.541,.2121,2.4667,.7219-.0867,.595-.5395,1.8945-3.9968,2.188-2.5578,.2172-4.669,.214-4.669,.214Z" style="fill:#fff;"/></g></g></g></g></svg>