<?xml version="1.0" encoding="UTF-8"?><svg id="Layer_2" xmlns="http://www.w3.org/2000/svg" viewBox="0 0 250.6828 108.8813"><g id="Components"><g id="_6360d2e5-de29-44f4-b61b-6411a694f75b_1"><g><g><path d="M228.3879,38.3572c1.3827,0,2.6869,.2551,3.9112,.7652,1.2246,.5102,2.29,1.2073,3.1971,2.0914,.9064,.8845,1.6208,1.9164,2.1426,3.0951,.5214,1.1791,.7822,2.4375,.7822,3.775s-.2607,2.5966-.7822,3.775c-.5218,1.1794-1.2362,2.2107-2.1426,3.0951-.9071,.8841-1.9725,1.5813-3.1971,2.0914-1.2242,.5102-2.5285,.7652-3.9112,.7652s-2.6866-.2551-3.9112-.7652c-1.2242-.5102-2.2904-1.2073-3.1968-2.0914-.9074-.8845-1.6215-1.9157-2.1429-3.0951-.5218-1.1784-.7822-2.4368-.7822-3.775s.2604-2.5959,.7822-3.775c.5214-1.1787,1.2355-2.2107,2.1429-3.0951,.9064-.8841,1.9725-1.5813,3.1968-2.0914,1.2246-.5102,2.5279-.7652,3.9112-.7652Zm0,15.7806c.8164,0,1.5869-.1584,2.3126-.4759,.7254-.3175,1.3604-.7483,1.9048-1.2927,.544-.544,.9692-1.1844,1.2754-1.9214,.3059-.7367,.459-1.5248,.459-2.3638s-.1531-1.6268-.459-2.3638c-.3062-.7363-.7314-1.3773-1.2754-1.9214-.5444-.5444-1.1794-.9748-1.9048-1.2927-.7257-.3172-1.4963-.4759-2.3126-.4759s-1.5873,.1588-2.3126,.4759c-.726,.3178-1.3604,.7483-1.9044,1.2927-.5444,.544-.9695,1.185-1.2754,1.9214-.3062,.737-.4593,1.5251-.4593,2.3638s.1531,1.6271,.4593,2.3638c.3059,.737,.731,1.3773,1.2754,1.9214,.544,.5444,1.1784,.9751,1.9044,1.2927,.7254,.3175,1.4966,.4759,2.3126,.4759Z" style="fill:#7162ab;"/><path d="M250.3246,35.5002h-.0681c-.5218,0-1.009,.091-1.4624,.272-.454,.1817-.8503,.4251-1.1904,.7314-.3401,.3059-.6068,.6633-.7994,1.0711-.1926,.4082-.289,.8503-.289,1.3265h3.8092v3.5372h-3.8092v14.8283h-4.0812v-14.8283h-2.3807v-3.5372h2.3807c0-.9293,.1754-1.7968,.5271-2.6019,.3514-.8044,.8273-1.5075,1.4285-2.1084,.6005-.6005,1.3093-1.0768,2.1256-1.4285,.8164-.3514,1.6776-.5271,2.5846-.5271h1.2246v3.2649Z" style="fill:#7162ab;"/></g><path d="M172.4848,20.2163h-8.1048v5.4214h.0474v19.6357c0,.004,.0006,.0078,.0006,.0118s-.0006,.0079-.0006,.0119v.046h-.0022c-.031,2.3578-1.9293,4.2602-4.2695,4.2602s-4.2384-1.9024-4.2695-4.2602h-.0169V25.6377h.012v-5.4214h-7.8626l-.0019,20.2893c0,.1931-.011,.3812-.0179,.5712v4.1966c0,.004,.0006,.0078,.0006,.0118s-.0006,.0079-.0006,.0119v.046h-.0024c-.0313,2.3578-1.9499,4.2602-4.3152,4.2602s-4.2837-1.9024-4.3152-4.2602h-.0171V25.6377h.0286v-5.4196h-7.9642v19.8298c0,.3153,.0195,.6216,.0302,.9321v4.4768c0,1.6698,.3188,3.241,.9567,4.7143,.6376,1.4729,1.5033,2.7561,2.5962,3.8491,1.0934,1.0934,2.3767,1.9586,3.849,2.5964,1.4733,.6379,3.045,.9564,4.7148,.9564s3.2419-.3185,4.7144-.9564c1.3873-.6006,2.5991-1.4106,3.6494-2.4151,1.0506,1.0045,2.2631,1.8145,3.6495,2.4151,1.4733,.6379,3.0448,.9564,4.7147,.9564s3.242-.3185,4.7144-.9564c1.4733-.6379,2.7557-1.503,3.8491-2.5964,1.0931-1.093,1.9586-2.3763,2.5965-3.8491,.6374-1.4733,.9563-3.0444,.9563-4.7143v-3.4073c.0491-.6575,.0804-1.3231,.0804-2.0034V20.2163Z" style="fill:#7162ab;"/><g><path d="M202.1778,48.4695c.0249,.0169,.0501,.0329,.075,.0498-.4255-.4399-.294-.1984-.075-.0498Z" style="fill:#7162ab;"/><path d="M191.2933,26.7218c.0056,.0367,.0116,.0734,.0172,.1102-.0199-.1745-.0348-.2979-.0453-.3798,.0102,.0897,.0174,.1799,.0281,.2696Z" style="fill:#7162ab;"/><path d="M186.3867,48.4618c-.0091,.0069-.0176,.0132-.0266,.0203,.0046-.0031,.0093-.0061,.0139-.0092,.0046-.0037,.0081-.0075,.0128-.0112Z" style="fill:#7162ab;"/><path d="M209.9164,49.5082c-.4984,.0425-.9972,.0633-1.4975,.0503-.2192-.0057-.4384-.0168-.6572-.0332-.0514-.0038-.1024-.0094-.1536-.0142-.4538-.162-1.0238-.188-1.488-.3171-.5007-.1394-.9911-.3834-1.4912-.5128-.0523-.0248-.1047-.0495-.1567-.075-.2621-.1291-.5208-.2653-.7754-.409-.4992-.282-.972-.6008-1.4441-.9257,.0281,.0295,.0512,.0529,.0844,.0888-.0879-.0951-.2132-.1739-.3124-.2575-.2444-.2059-.4834-.4185-.7164-.638-.3808-.3593-.7406-.7394-1.0961-1.1243-.3738-.4047-.7386-.8177-1.1009-1.2329,.2846-.4849,.561-.9751,.8174-1.4775,2.2989-4.5026,3.8325-9.535,4.7519-14.5111,.841-4.5512,1.0951-9.4535,.6034-14.0603-.5954-5.5766-3.1396-12.0646-8.9772-13.7594-6.1647-1.7896-10.9735,4.8104-12.4339,10.0829-.6339,2.2888-.7631,4.7763-.799,7.1447-.0356,2.339,.068,4.6864,.3129,7.0125,.5259,4.9971,1.7959,9.9884,3.6933,14.6299,.7014,1.7157,1.5004,3.3393,2.4044,4.8948-.3746,.4304-.7528,.8575-1.1397,1.2764-.3556,.3849-.7153,.7649-1.0963,1.1243-.1998,.1885-.4043,.3721-.6127,.5508-.0753,.0645-.1639,.1302-.2492,.1975,.1557-.1197,.2929-.1956-.0075,.0078-.0018,.0011-.0035,.0024-.0053,.0036-.0554,.0443-.112,.0886-.1541,.1358,.0356-.0398,.0878-.0849,.1402-.1265-.494,.3343-.9803,.6699-1.4999,.9634-.2184,.1233-.44,.2414-.664,.3541-.0759,.0383-.1528,.0743-.2294,.1108-.1978,.0027-.5587,.2254-.7402,.2872-.261,.0889-.5241,.1708-.7896,.2447-.471,.131-.9618,.1935-1.4336,.3128-.0325,.0032-.0649,.0066-.0975,.0092-.2556,.0214-.5115,.0358-.7678,.0424-.5002,.013-.9991-.0078-1.4975-.0503-.001,0-.0021,0-.003,0v7.9713c.0011,0,.0021,.0004,.003,.0005,5.6945,.4862,11.2975-2.2485,15.1489-6.3938,.1664-.1791,.3293-.3622,.4936-.5436,3.1256,3.3489,6.9431,6.0309,11.5492,6.7156,1.3667,.2031,2.7048,.3395,4.0841,.2218,.0667-.0057,.1332-.0168,.1998-.0254v-7.9504c-.0667,.0015-.1321-.0018-.1998,.0041Zm-12.3984-26.7363c-.0254,.2277-.0605,.4553-.0889,.6833-.0471,.5531-.1015,1.1054-.1663,1.6562-.0203,.1381-.0399,.2763-.0624,.4141-.0665,.4089-.1466,.8143-.2333,1.2192-.2893,1.3524-.6084,2.6984-.9666,4.0336-.3103,1.1569-.6511,2.3057-1.0315,3.4408-.1714,.5107-.3507,1.0187-.5396,1.5231-.0491,.1315-.1002,.2625-.1508,.3936-.0506-.1312-.1021-.2619-.1514-.3936-.1887-.5044-.3681-1.0124-.5394-1.5231-.4847-1.4442-.9-2.9116-1.2748-4.3897-.123-.4115-.242-.8283-.3491-1.2628-.2452-.9976-.4482-2.0308-.6246-3.0775,.0014,.0127,.0024,.021,.0038,.0341-.0016-.0144-.0037-.0286-.0053-.0429-.2532-1.5045-.4415-3.042-.5393-4.5855-.0774-1.2198-.1099-2.4507-.0988-3.6773,.0113-1.2419,.0522-2.5464,.2521-3.7466,.4158-2.4942,1.6928-5.5437,3.3667-5.43,.0105-.0028,.0207-.0052,.0314-.0083,.0108,.0031,.018,.0052,.0281,.008,.0037,.0024,.0064,.0043,.0096,.0062,.1597,.0191,.3215,.0564,.4879,.1367,1.842,.8886,2.6449,4.2909,2.8328,7.2151,.1551,2.4158,.0748,4.9866-.1905,7.3729Z" style="fill:#7162ab;"/><path d="M183.9665,49.8873c-.0723,.0339-.1441,.0684-.2162,.1027-.4721,.2242,.0313-.0659,.2162-.1027Z" style="fill:#7162ab;"/><path d="M207.4924,50.7121c-.0576-.0056-.1154-.0105-.173-.0157-.4048-.0368-.0759-.0159,.173,.0157Z" style="fill:#7162ab;"/></g><path d="M84.3453,95.1814c-.6969,1.7429-1.6446,3.3442-2.8425,4.8037-1.1985,1.4602-2.5815,2.7232-4.1496,3.7903-1.5687,1.0677-3.3008,1.8948-5.1956,2.4832-1.8954,.5884-3.8668,.882-5.9142,.882-2.6581,0-5.163-.4901-7.5154-1.4704-2.353-.9803-4.401-2.3199-6.1433-4.0187-1.7429-1.6995-3.1265-3.6811-4.1496-5.9474-1.0243-2.2643-1.5361-4.6825-1.5361-7.2538s.5118-4.9882,1.5361-7.2538c1.023-2.265,2.4066-4.2478,4.1496-5.9474,1.7423-1.6989,3.7903-3.0385,6.1433-4.0187,2.3524-.9803,4.8573-1.4704,7.5154-1.4704,2.7009,0,5.2166,.4901,7.548,1.4704,2.3301,.9803,4.3787,2.3199,6.1427,4.0187,1.7646,1.6995,3.1476,3.6824,4.1502,5.9474,1.0013,2.2656,1.503,4.6837,1.503,7.2538,0,.8718-.0651,1.7429-.1959,2.6141h-30.3233c.3044,1.307,.806,2.5056,1.503,3.5943,.6969,1.0894,1.5361,2.0371,2.5164,2.8425,.9803,.8067,2.0799,1.4379,3.3001,1.8954,1.219,.4576,2.5049,.6861,3.856,.6861,1.9605,0,3.7679-.4461,5.424-1.3396,1.6548-.8922,2.9836-2.0799,3.9862-3.5618h8.6916Zm-18.1019-18.3635c-1.307,0-2.549,.2074-3.7252,.621-1.1762,.4142-2.2445,.9911-3.2025,1.7314-.9586,.7416-1.7972,1.6236-2.5158,2.6466-.7192,1.0243-1.2528,2.1469-1.6012,3.3659h22.0887c-.3491-1.219-.8718-2.3415-1.5681-3.3659-.6976-1.023-1.5361-1.905-2.5164-2.6466-.9803-.7403-2.0582-1.3172-3.235-1.7314-1.1762-.4136-2.4175-.621-3.7245-.621Z" style="fill:#7162ab;"/><path d="M168.2556,71.8508l-16.2077,35.2898h-5.0973l-16.207-35.2898h8.4306l10.3254,23.7882,10.3254-23.7882h8.4306Z" style="fill:#7162ab;"/><path d="M207.8584,95.1814c-.6969,1.7429-1.6446,3.3442-2.8425,4.8037-1.1985,1.4602-2.5815,2.7232-4.1496,3.7903-1.5687,1.0677-3.3008,1.8948-5.1956,2.4832-1.8954,.5884-3.8668,.882-5.9142,.882-2.6581,0-5.163-.4901-7.5154-1.4704-2.353-.9803-4.401-2.3199-6.1433-4.0187-1.7429-1.6995-3.1265-3.6811-4.1496-5.9474-1.0243-2.2643-1.5361-4.6825-1.5361-7.2538s.5118-4.9882,1.5361-7.2538c1.023-2.265,2.4066-4.2478,4.1496-5.9474,1.7423-1.6989,3.7903-3.0385,6.1433-4.0187,2.3524-.9803,4.8573-1.4704,7.5154-1.4704,2.7009,0,5.2166,.4901,7.548,1.4704,2.3301,.9803,4.3787,2.3199,6.1427,4.0187,1.7646,1.6995,3.1476,3.6824,4.1502,5.9474,1.0013,2.2656,1.503,4.6837,1.503,7.2538,0,.8718-.0651,1.7429-.1959,2.6141h-30.3233c.3044,1.307,.806,2.5056,1.503,3.5943,.6969,1.0894,1.5361,2.0371,2.5164,2.8425,.9803,.8067,2.0799,1.4379,3.3001,1.8954,1.219,.4576,2.5049,.6861,3.856,.6861,1.9605,0,3.7679-.4461,5.424-1.3396,1.6548-.8922,2.9836-2.0799,3.9862-3.5618h8.6916Zm-18.1019-18.3635c-1.307,0-2.549,.2074-3.7252,.621-1.1762,.4142-2.2445,.9911-3.2025,1.7314-.9586,.7416-1.7972,1.6236-2.5158,2.6466-.7192,1.0243-1.2528,2.1469-1.6012,3.3659h22.0887c-.3491-1.219-.8718-2.3415-1.5681-3.3659-.6976-1.023-1.5361-1.905-2.5164-2.6466-.9803-.7403-2.0582-1.3172-3.235-1.7314-1.1762-.4136-2.4175-.621-3.7245-.621Z" style="fill:#7162ab;"/><path d="M41.0826,81.425c-.9145-2.1131-2.1565-3.9543-3.7245-5.5223-1.5687-1.5687-3.4099-2.81-5.5223-3.7252-2.1137-.9152-4.3685-1.3721-6.7643-1.3721-1.8297,0-3.5611,.3268-5.1949,.9803-1.6338,.6535-3.0831,1.547-4.3461,2.6792v-3.5754c1.9154-1.0171,3.7341-2.2414,5.4151-3.7056,6.0728-5.2895,9.7019-13.2285,10.1799-21.2078,.1072-1.7913,.0412-3.5903-.1588-5.3729-.2596-2.3151-.6532-4.4013-1.7664-6.4777-1.7724-3.306-5.3238-6.2496-9.252-6.0913-4.9974,.2015-8.705,4.1419-10.1003,8.7022-.5367,1.7546-.811,3.6074-1.0741,5.4195-.3167,2.1813-.5747,4.3695-.7508,6.5667-.4544,5.669-.4427,11.3462-.3928,17.0251-.9833,.291-1.9802,.5364-2.9879,.7267-.4142,.0782-.8305,.1417-1.2464,.2084-.2176,.0239-.4351,.0499-.6529,.0715-.9121,.0901-1.827,.1414-2.7431,.1666v7.8419c2.6051-.072,5.1852-.3904,7.6882-.9713v33.3493h7.8422v-19.4095c0-1.3498,.2502-2.6243,.7518-3.8228,.5003-1.1979,1.1762-2.2433,2.0256-3.1367,.8494-.8928,1.8623-1.6012,3.0391-2.1239,1.1762-.5233,2.4175-.7843,3.7245-.7843s2.549,.261,3.7252,.7843c1.1762,.5227,2.1897,1.2311,3.0391,2.1239,.8494,.8935,1.5247,1.9388,2.0256,3.1367,.5003,1.1985,.7518,2.473,.7518,3.8228v19.4095h7.8422v-18.9519c0-2.3958-.4576-4.6499-1.3728-6.7636ZM15.5302,55.2712c-.0128-2.8814-.0054-5.7619,.1339-8.6385,.0586-1.209,.1442-2.413,.2495-3.6132,.0873-.9972,.1785-2.0166,.3569-2.9821,.4637-2.5092,1.6959-4.6774,3.3566-4.7883,1.3054-.0871,2.4858,1.5326,3.0747,3.3517,.37,1.1425,.5008,2.2905,.587,3.5643,.0664,.9809,.0884,1.9708,.0528,2.9565-.0265,.7315-.0925,1.4596-.176,2.1834,.0019,.0385-.0003,.0901-.0134,.1647-.0096,.0546-.0187,.1091-.0278,.1637-.0029,.022-.0056,.0442-.0083,.0662,.0003,.0193-.0011,.0407,.0022,.0571-.0026-.0128-.0037-.0235-.0051-.0346-.4534,3.4655-1.5377,6.737-3.1548,9.069-.4498,.6488-1.8173,2.1494-2.3194,2.6364-.0054-.0036-.0094-.0087-.0148-.0123-.2628,.2984-.5276,.5953-.8048,.8802-.4392,.4513-.9021,.8785-1.3758,1.2932-.0027-2.1049,.027-4.2098,.0874-6.3147-.0003-.001-.0006-.0019-.001-.0028Z" style="fill:#7162ab;"/><path d="M249.31,81.4271c-.9145-2.113-2.1564-3.9544-3.7245-5.5224-1.5686-1.5687-3.4098-2.8101-5.5223-3.7253-2.1136-.915-4.3685-1.372-6.7643-1.372s-4.6512,.457-6.7635,1.372c-2.0913,.9055-3.9125,2.1327-5.4703,3.6779-2.3178-3.0664-5.9413-5.0498-10.129-5.0498v8.1175c2.7364,0,4.9624,2.26,4.9624,4.9965h.0167v4.591h.0006v18.6302h7.8421v-19.4095c0-1.3498,.2501-2.6242,.7518-3.8228,.5003-1.1978,1.1762-2.2434,2.0257-3.1367,.8493-.8928,1.8623-1.6013,3.0389-2.124,1.1763-.5234,2.4175-.7844,3.7245-.7844s2.5491,.261,3.7253,.7844c1.1762,.5227,2.1896,1.2311,3.0391,2.124,.8494,.8933,1.5246,1.9389,2.0256,3.1367,.5004,1.1986,.7518,2.473,.7518,3.8228l-.017,19.3608,7.8396,.0095v-9.1596c0-.0705,.0111-.1336,.0197-.1983v-9.5549c0-2.3956-.4576-4.6497-1.3728-6.7635Z" style="fill:#7162ab;"/><path d="M80.7479,31.7216c-1.0027-2.2649-2.3754-4.2478-4.117-5.9474-1.743-1.6988-3.78-3.0384-6.1107-4.0187s-4.8256-1.4703-7.4824-1.4703c-2.2221,0-4.3135,.4358-6.274,1.307-1.9605,.8717-3.6595,2.0479-5.0974,3.5285V13.2778h.0102c0-.071-.0092-.1396-.0102-.2103v-.1017h-.005c-.1596-7.0861-5.679-12.8019-12.8048-12.8019V8.2815c2.7364,0,4.9624,2.2599,4.9624,4.9964h.0052v8.0574h-.0215v17.6449c0,.294,.0085,.5855,.0215,.8755v.1704c.004,.0077,.0067,.017,.0106,.0249,.1208,2.1732,.6095,4.235,1.4708,6.183,1.0027,2.2649,2.3747,4.2478,4.1171,5.9474,1.7429,1.6988,3.78,3.0384,6.11,4.0187,2.3314,.9803,4.8261,1.4703,7.4829,1.4703,1.6623,0,3.2605-.1916,4.7945-.5749,.9265-.2305,1.8301-.5301,2.7101-.9003,2.3307-.9801,4.3677-2.3198,6.1107-4.0187,1.7416-1.6995,3.1143-3.6811,4.117-5.9474,1.0019-2.2643,1.5029-4.6824,1.5029-7.2538,0-2.57-.501-4.988-1.5029-7.2537Zm-7.2759,11.8006c-.6095,1.4149-1.4379,2.6466-2.4833,3.692-1.0453,1.0461-2.2649,1.8731-3.6594,2.4839-.6928,.3029-1.4078,.53-2.1439,.6825-.7381,.1513-1.4972,.2272-2.2783,.2272-1.5687,0-3.05-.3045-4.4438-.9146-1.3951-.6101-2.614-1.4379-3.66-2.4838-1.0454-1.0454-1.8738-2.276-2.4833-3.6921-.6107-1.4155-.9151-2.93-.9151-4.5421s.3044-3.1258,.9151-4.542c.6095-1.4149,1.4379-2.6466,2.4833-3.692,1.0459-1.0461,2.2649-1.8732,3.66-2.4839,.6931-.303,1.408-.5301,2.1441-.6826,.7377-.1511,1.4967-.2271,2.2775-.2271,1.5687,0,3.0506,.3045,4.4445,.9146,1.3945,.6101,2.614,1.4379,3.6594,2.4838,1.0454,1.0454,1.8738,2.2758,2.4833,3.692,.6107,1.4156,.9151,2.93,.9151,4.5421s-.3044,3.1259-.9151,4.5421Z" style="fill:#7162ab;"/><path d="M127.8034,95.8916v-7.4413c0-2.57-.5009-4.9882-1.5029-7.2537-1.0026-2.2651-2.3746-4.2479-4.117-5.9475-1.7429-1.6987-3.7799-3.0383-6.1103-4.0187-2.3312-.9802-4.8258-1.4705-7.4828-1.4705s-5.1527,.4902-7.4828,1.4705c-2.3314,.9804-4.3684,2.32-6.1101,4.0187-1.7435,1.6996-3.1157,3.6824-4.1175,5.9475-1.0027,2.2654-1.5031,4.6837-1.5031,7.2537,0,2.5713,.5004,4.9894,1.5031,7.2537,1.0018,2.2663,2.374,4.248,4.1175,5.9475,1.7417,1.6989,3.7787,3.0384,6.1101,4.0187,2.3301,.9804,4.8247,1.4705,7.4828,1.4705,2.3952,0,4.6072-.5125,6.6329-1.5354,2.0261-1.0232,3.7353-2.4284,5.1304-4.2154l.5048-.7421c1.858,4.8175,6.391,8.2335,11.895,8.2335v-8.1178c-2.6942,0-4.8826-2.1932-4.9501-4.8719Zm-10.9789,.7928c-1.0453,1.0461-2.2656,1.8738-3.6594,2.4837-1.3952,.6102-2.8757,.9148-4.4438,.9148s-3.0504-.3046-4.4444-.9148c-1.3945-.6099-2.614-1.4376-3.6594-2.4837-1.0453-1.0453-1.8738-2.2757-2.4833-3.692-.6106-1.4155-.9152-2.9299-.9152-4.5421s.3046-3.1258,.9152-4.5421c.6095-1.4148,1.438-2.6465,2.4833-3.692,1.0453-1.0459,2.2649-1.8731,3.6594-2.4837,1.394-.6095,2.8758-.9146,4.4444-.9146s3.0486,.3051,4.4438,.9146c1.3938,.6106,2.614,1.4378,3.6594,2.4837,1.0461,1.0455,1.8731,2.2772,2.4832,3.692,.6102,1.4163,.9152,2.9306,.9152,4.5421s-.3049,3.1266-.9152,4.5421c-.61,1.4163-1.4371,2.6467-2.4832,3.692Z" style="fill:#7162ab;"/></g><g><path d="M113.5801,56.2127c2.397-.9986,4.4825-2.3632,6.2579-4.0937,1.7742-1.7314,3.1725-3.7498,4.1937-6.0582,1.0207-2.3064,1.531-4.7698,1.531-7.389s-.5103-5.081-1.531-7.3892c-.5293-1.1956-2.089-4.4033-2.8242-5.4417,.1417,1.3108-.5811,2.78-1.7733,4.7953-.9336,1.5778-3.563,5.267-11.0145,9.9242-5.7593,3.5996-11.7654,5.1406-13.9715,5.5463-3.6835,.6774-6.5179,.007-7.6208-.7156,.3537,.5616,2.0838,2.9045,2.9602,4.0946,.002-.0009,.0034-.0027,.0055-.0037,.6569,.9421,1.3883,1.8273,2.2187,2.637,1.7744,1.7306,3.8612,3.0951,6.2573,4.0937,2.3969,.9985,4.9479,1.4978,7.6556,1.4978s5.2594-.4993,7.6555-1.4978Z" style="fill:#cfe072;"/><g><path d="M119.6447,23.5511c-2.0527-3.5555-11.22-2.1054-20.4756,3.2383-9.2558,5.3437-15.0951,12.5579-13.0424,16.1134,2.0526,3.5552,11.2198,2.1054,20.4756-3.2385,9.2559-5.3439,15.0952-12.5581,13.0425-16.1132Zm-10.7135,1.1723c1.6545-1.3788,3.483-1.3924,3.9049-1.0892,.4138,.2974,.8177,1.3058-1.2007,2.9905-3.9936,3.3333-7.1071,4.3652-7.1071,4.3652,0,0,1.5035-3.8504,4.4029-6.2665Zm-18.5108,12.4926c-.605-1.0531,.7839-3.1565,3.6596-3.9049,2.903-.7556,7.0431-.0262,7.0431-.0262,0,0-1.1267,.901-3.7385,2.096-2.6117,1.1951-6.3592,2.8882-6.9642,1.8351Zm9.0862,1.4529c-1.5806,2.3217-3.3388,4.451-5.1791,3.8409-1.1026-.3655-1.3111-2.502,.6192-4.1171,1.2601-1.0544,6.8935-4.493,6.8935-4.493,0,0-.7529,2.4475-2.3336,4.7692Zm-.5543-7.5702c-1.0837-1.1779-.3003-2.5347,1.0524-3.3316,1.1608-.6838,3.1071-1.0306,3.7733,.2125,.7004,1.307-1.1284,3.7327-1.1284,3.7327,0,0-3.0743,.0635-3.6972-.6136Zm8.0236,6.1365c-.7628,.72-3.379,1.9361-4.1561,.1328-.7771-1.8033,.7712-4.0816,.7712-4.0816,0,0,3.0617-.9549,4.1425,.0111,1.5243,1.3625-.0007,3.2234-.7575,3.9377Zm9.1609-8.2385c-.1149,.8084-.8756,2.5263-5.039,2.778-3.2288,.1952-5.792,.1432-5.792,.1432,0,0,5.1161-3.4806,7.8404-4.1613,2.7243-.6806,3.0891,.5475,2.9906,1.2401Z" style="fill:#c38ebf;"/><path d="M106.3188,29.2978s1.174-2.4024,2.8209-3.7776c.9398-.7848,2.3565-1.3981,2.7105-1.044,.3769,.3769-.4195,1.3299-1.5661,2.2889-2.2686,1.8974-3.9654,2.5328-3.9654,2.5328Z" style="fill:#c38ebf;"/><path d="M102.1364,30.8865s1.1202-1.5677,.6897-2.4135c-.4094-.8045-1.603-.5814-2.3146-.1399-.8292,.5145-1.3088,1.3916-.6434,2.1542,.3825,.4384,2.2682,.3993,2.2682,.3993Z" style="fill:#c38ebf;"/><path d="M98.8644,33.8325s-2.6288-.4391-4.4691-.0016c-1.823,.4333-2.9953,1.9195-2.6089,2.5404s3.0565-.6181,4.7109-1.3148c1.6544-.6967,2.3672-1.2239,2.3672-1.2239Z" style="fill:#c38ebf;"/><path d="M100.0158,35.9119s-3.2644,2.0225-4.0306,2.5936c-1.5425,1.1495-1.3429,2.5865-.6992,2.7959,1.0744,.3496,2.437-1.3028,3.3623-2.6411s1.3674-2.7484,1.3674-2.7484Z" style="fill:#c38ebf;"/><path d="M104.2841,33.9616s-1.1277,1.452-.6711,2.6668c.4566,1.2148,2.2643,.4983,2.8049,.0485,.5364-.4464,1.6329-1.6238,.6566-2.5724-.6922-.6725-2.7903-.1429-2.7903-.1429Z" style="fill:#c38ebf;"/><path d="M107.9944,31.1451s3.2059-2.0634,4.9182-2.4784c1.7123-.415,2.0159,.1683,1.957,.5728-.0688,.4721-.428,1.503-3.1709,1.7359-2.0293,.1723-3.7042,.1698-3.7042,.1698Z" style="fill:#c38ebf;"/></g></g></g></g></svg>